# xmcd
#
# Track frame offsets: 
#        182
#        21530
#        38882
#        62660
#        81640
#        100015
#        120107
#        137927
#        162600
#        176147
#        193107
#        216512
#        234040
#
# Disc length: 3425 seconds
#
# Revision: 0
# Processed by: cddbd v1.4PL0 Copyright (c) Steve Scherf et al.
# Submitted via: ExactAudioCopy v0.90a11
#
DISCID=bb0d5f0d
DTITLE=Tiny Town - Tiny Town
DYEAR=1900
DGENRE=
TTITLE0=I'm Sorry Baby
TTITLE1=Pretty Pink Flower
TTITLE2=Love, Lead Us Home
TTITLE3=Hollywood
TTITLE4=Don't Let Time Run Out
TTITLE5=Baby Ain't Got No Home
TTITLE6=Learning How To Live
TTITLE7=New Day
TTITLE8=Straight Up
TTITLE9=Little child
TTITLE10=Save It For A Rainy Day
TTITLE11=Follow You Home
TTITLE12=Tiny Town
EXTD=
EXTT0=
EXTT1=
EXTT2=
EXTT3=
EXTT4=
EXTT5=
EXTT6=
EXTT7=
EXTT8=
EXTT9=
EXTT10=
EXTT11=
EXTT12=
PLAYORDER=
